<svg xmlns="http://www.w3.org/2000/svg" viewBox="0 0 100 100"><defs><style>path{fill:#231f20}@media (prefers-color-scheme:dark){path{fill:#ddd}}</style></defs><path d="M4.57 36.08c0-1.65.09-3.07.27-4.24.18-1.17.49-2.18.94-3.04.45-.86.96-1.63 1.55-2.31.58-.69 1.32-1.4 2.22-2.14 1.79-1.48 4.03-2.64 6.72-3.47 2.69-.83 5.6-1.24 8.74-1.24s6.05.41 8.74 1.24c2.69.83 4.93 1.98 6.72 3.47.89.74 1.66 1.46 2.28 2.14.63.68 1.16 1.46 1.61 2.31.45.86.74 1.87.87 3.04s.2 2.58.2 4.24c0 1.83-.05 3.37-.13 4.62-.09 1.26-.36 2.37-.81 3.34-.45.97-1.14 1.84-2.08 2.61s-2.22 1.58-3.83 2.44c1.61.8 2.89 1.6 3.83 2.4.94.8 1.63 1.74 2.08 2.83.45 1.08.72 2.41.81 3.98.09 1.57.13 3.5.13 5.78 0 1.88-.07 3.44-.2 4.67s-.34 2.3-.6 3.21c-.27.91-.65 1.68-1.14 2.31-.49.63-1.1 1.28-1.81 1.97-1.52 1.48-3.68 2.75-6.45 3.81-2.78 1.06-6.18 1.58-10.21 1.58s-7.44-.53-10.22-1.58c-2.78-1.06-4.93-2.33-6.45-3.81-.72-.69-1.32-1.34-1.81-1.97-.49-.63-.87-1.4-1.14-2.31-.27-.91-.47-1.98-.6-3.21s-.2-2.78-.2-4.67c0-2.28.04-4.21.13-5.78.09-1.57.36-2.9.81-3.98a7.438 7.438 0 0 1 2.08-2.83c.94-.8 2.22-1.6 3.83-2.4-1.61-.86-2.89-1.67-3.83-2.44s-1.64-1.64-2.08-2.61c-.45-.97-.72-2.08-.81-3.34-.09-1.25-.13-2.8-.13-4.62Zm27.15-3.42c0-1.2-.67-2.21-2.02-3.04-1.34-.83-2.91-1.24-4.7-1.24s-3.36.42-4.7 1.24c-1.34.83-2.02 1.84-2.02 3.04v8.9c0 1.2.67 2.21 2.02 3.04 1.34.83 2.91 1.24 4.7 1.24s3.36-.41 4.7-1.24c1.34-.83 2.02-1.84 2.02-3.04v-8.9Zm0 23.97c0-1.2-.67-2.21-2.02-3.04-1.34-.83-2.91-1.24-4.7-1.24s-3.36.42-4.7 1.24c-1.34.83-2.02 1.84-2.02 3.04v11.99c0 1.2.67 2.21 2.02 3.04 1.34.83 2.91 1.24 4.7 1.24s3.36-.41 4.7-1.24c1.34-.83 2.02-1.84 2.02-3.04V56.63ZM78.49 81.11v-9.08H51.2v-8.22l19.76-43.66h14.52L64.92 63.81h13.57V46.43H92.2v17.38h6.59v8.22H92.2v9.08H78.49Z"/></svg>