<?xml version="1.0" standalone="no"?>
<!DOCTYPE svg PUBLIC "-//W3C//DTD SVG 20010904//EN"
        "http://www.w3.org/TR/2001/REC-SVG-20010904/DTD/svg10.dtd">
<svg version="1.0" xmlns="http://www.w3.org/2000/svg"
     width="260.000000pt" height="260.000000pt" viewBox="0 0 260.000000 260.000000"
     preserveAspectRatio="xMidYMid meet">
    <metadata>
        Created by potrace 1.11, written by Peter Selinger 2001-2013
    </metadata>
    <g transform="translate(0.000000,260.000000) scale(0.100000,-0.100000)"
       fill="#000000" stroke="none">
        <path d="M0 1300 l0 -1300 1300 0 1300 0 0 1300 0 1300 -1300 0 -1300 0 0
-1300z m1500 1170 c0 -13 7 -20 20 -20 18 0 20 -7 20 -55 l0 -55 -40 0 c-29 0
-40 -4 -40 -15 0 -10 -11 -15 -35 -15 -24 0 -35 5 -35 15 0 10 -11 15 -35 15
l-35 0 0 55 c0 42 3 55 15 55 8 0 15 9 15 20 0 18 7 20 75 20 68 0 75 -2 75
-20z m730 -145 c0 -8 9 -15 20 -15 18 0 20 -7 20 -75 0 -68 -2 -75 -20 -75
-13 0 -20 -7 -20 -20 0 -18 -7 -20 -55 -20 -48 0 -55 2 -55 20 0 11 -7 20 -15
20 -8 0 -15 9 -15 20 0 13 -7 20 -20 20 -18 0 -20 7 -20 55 0 48 2 55 20 55
11 0 20 7 20 15 0 12 14 15 70 15 56 0 70 -3 70 -15z m-910 -330 c0 -8 7 -15
15 -15 11 0 15 -11 15 -40 0 -29 -4 -40 -15 -40 -8 0 -15 -7 -15 -15 0 -10
-11 -15 -35 -15 -28 0 -35 -4 -35 -20 0 -13 -7 -20 -20 -20 -16 0 -20 -7 -20
-35 0 -28 -4 -35 -20 -35 -13 0 -20 -7 -20 -20 0 -16 -7 -20 -35 -20 -28 0
-35 4 -35 20 0 13 -7 20 -20 20 -16 0 -20 7 -20 35 0 28 4 35 20 35 13 0 20 7
20 20 0 16 7 20 35 20 24 0 35 5 35 15 0 8 9 15 20 15 17 0 20 7 20 40 0 33 3
40 20 40 11 0 20 7 20 15 0 10 11 15 35 15 24 0 35 -5 35 -15z m-730 -75 c0
-13 -7 -20 -20 -20 -13 0 -20 7 -20 20 0 13 7 20 20 20 13 0 20 -7 20 -20z
m140 -70 c0 -13 7 -20 20 -20 16 0 20 -7 20 -35 0 -28 -4 -35 -20 -35 -13 0
-20 -7 -20 -20 0 -16 -7 -20 -35 -20 -28 0 -35 4 -35 20 0 13 -7 20 -20 20
-16 0 -20 7 -20 35 0 28 4 35 20 35 13 0 20 7 20 20 0 16 7 20 35 20 28 0 35
-4 35 -20z m-440 -110 c0 -13 7 -20 20 -20 18 0 20 -7 20 -55 0 -48 -2 -55
-20 -55 -16 0 -20 -7 -20 -35 l0 -35 -55 0 c-42 0 -55 3 -55 15 0 8 -7 15 -15
15 -12 0 -15 15 -15 75 0 60 3 75 15 75 8 0 15 9 15 20 0 18 7 20 55 20 48 0
55 -2 55 -20z m2090 0 c0 -13 7 -20 20 -20 18 0 20 -7 20 -75 0 -68 -2 -75
-20 -75 -11 0 -20 -7 -20 -15 0 -12 -13 -15 -55 -15 -42 0 -55 3 -55 15 0 8
-9 15 -20 15 -18 0 -20 7 -20 75 0 68 2 75 20 75 13 0 20 7 20 20 0 18 7 20
55 20 48 0 55 -2 55 -20z m-330 -40 c0 -13 7 -20 20 -20 16 0 20 -7 20 -35 0
-28 -4 -35 -20 -35 -13 0 -20 -7 -20 -20 0 -16 -7 -20 -35 -20 -28 0 -35 4
-35 20 0 13 -7 20 -20 20 -16 0 -20 7 -20 35 0 28 4 35 20 35 13 0 20 7 20 20
0 16 7 20 35 20 28 0 35 -4 35 -20z m-1460 -35 c0 -8 -9 -15 -20 -15 -11 0
-20 7 -20 15 0 8 9 15 20 15 11 0 20 -7 20 -15z m870 -165 c0 -33 3 -40 20
-40 11 0 20 -7 20 -15 0 -8 9 -15 20 -15 13 0 20 -7 20 -20 0 -16 7 -20 35
-20 28 0 35 4 35 20 0 13 7 20 20 20 11 0 20 7 20 15 0 8 7 15 15 15 11 0 15
11 15 40 l0 40 40 0 40 0 0 -40 c0 -29 4 -40 15 -40 8 0 15 -7 15 -15 0 -8 9
-15 20 -15 13 0 20 -7 20 -20 0 -16 7 -20 35 -20 33 0 35 -2 35 -35 0 -28 4
-35 20 -35 13 0 20 -7 20 -20 0 -13 7 -20 20 -20 11 0 20 -7 20 -15 0 -12 13
-15 55 -15 l55 0 0 -40 0 -40 -40 0 c-29 0 -40 -4 -40 -15 0 -10 -11 -15 -35
-15 -34 0 -35 -1 -35 -40 0 -33 -3 -40 -20 -40 -11 0 -20 -7 -20 -15 0 -8 -7
-15 -15 -15 -8 0 -15 -9 -15 -20 0 -13 -7 -20 -20 -20 -13 0 -20 -7 -20 -20 0
-13 -7 -20 -20 -20 -11 0 -20 -7 -20 -15 0 -8 -7 -15 -15 -15 -8 0 -15 -9 -15
-20 0 -18 -7 -20 -55 -20 -48 0 -55 2 -55 20 0 17 -7 20 -40 20 -29 0 -40 4
-40 15 0 12 -13 15 -55 15 -48 0 -55 2 -55 20 0 11 -7 20 -15 20 -8 0 -15 -9
-15 -20 0 -13 -7 -20 -20 -20 -11 0 -20 -7 -20 -15 0 -8 -9 -15 -20 -15 -17 0
-20 -7 -20 -40 0 -39 -1 -40 -35 -40 -24 0 -35 -5 -35 -15 0 -10 -11 -15 -35
-15 -28 0 -35 -4 -35 -20 0 -13 -7 -20 -20 -20 -13 0 -20 -7 -20 -20 0 -16 -7
-20 -35 -20 -28 0 -35 4 -35 20 0 13 -7 20 -20 20 -13 0 -20 7 -20 20 0 11 -7
20 -15 20 -8 0 -15 7 -15 15 0 12 -17 15 -95 15 -88 0 -95 1 -95 20 0 11 -7
20 -15 20 -8 0 -15 9 -15 20 0 13 -7 20 -20 20 -16 0 -20 7 -20 35 0 33 -2 35
-35 35 -28 0 -35 4 -35 20 0 13 -7 20 -20 20 -16 0 -20 7 -20 35 0 33 2 35 35
35 28 0 35 4 35 20 0 13 7 20 20 20 11 0 20 7 20 15 0 8 9 15 20 15 17 0 20 7
20 40 0 39 1 40 35 40 34 0 35 -1 35 -40 0 -39 1 -40 35 -40 24 0 35 -5 35
-15 0 -11 11 -15 40 -15 29 0 40 4 40 15 0 8 7 15 15 15 12 0 15 15 15 75 0
60 -3 75 -15 75 -8 0 -15 7 -15 15 0 8 7 15 15 15 12 0 15 13 15 55 0 48 2 55
20 55 17 0 20 7 20 40 l0 40 180 0 180 0 0 -40z m-1020 -90 c0 -13 7 -20 20
-20 16 0 20 -7 20 -35 0 -28 -4 -35 -20 -35 -13 0 -20 -7 -20 -20 0 -18 -7
-20 -55 -20 -48 0 -55 2 -55 20 0 13 -7 20 -20 20 -16 0 -20 7 -20 35 0 28 4
35 20 35 13 0 20 7 20 20 0 18 7 20 55 20 48 0 55 -2 55 -20z m1210 -695 c0
-10 11 -15 35 -15 28 0 35 -4 35 -20 0 -16 7 -20 35 -20 28 0 35 -4 35 -20 0
-13 7 -20 20 -20 11 0 20 -7 20 -15 0 -8 9 -15 20 -15 13 0 20 -7 20 -20 0
-11 7 -20 15 -20 8 0 15 -9 15 -20 0 -13 7 -20 20 -20 19 0 20 -7 20 -110 0
-103 -1 -110 -20 -110 -11 0 -20 -7 -20 -15 0 -12 -13 -15 -55 -15 -48 0 -55
-2 -55 -20 0 -18 -7 -20 -55 -20 -48 0 -55 2 -55 20 0 18 -7 20 -55 20 -42 0
-55 3 -55 15 0 8 -7 15 -15 15 -8 0 -15 9 -15 20 0 13 -7 20 -20 20 -13 0 -20
7 -20 20 0 13 -7 20 -20 20 -11 0 -20 7 -20 15 0 8 -7 15 -15 15 -8 0 -15 9
-15 20 0 13 -7 20 -20 20 -16 0 -20 7 -20 35 0 28 4 35 20 35 13 0 20 7 20 20
0 11 7 20 15 20 12 0 15 13 15 55 0 48 2 55 20 55 16 0 20 7 20 35 l0 35 75 0
c60 0 75 -3 75 -15z"/>
    </g>
</svg>
